<mxfile host="app.diagrams.net" modified="2021-03-18T06:26:51.252Z" agent="5.0 (Macintosh; Intel Mac OS X 10_15_7) AppleWebKit/537.36 (KHTML, like Gecko) Chrome/89.0.4389.82 Safari/537.36" etag="RlE9iVquxfH4VTBTrHpq" version="14.4.7" type="github">
  <diagram id="bfScJgAUa1qch9v2hKnj" name="第 1 页">
    <mxGraphModel dx="1186" dy="670" grid="1" gridSize="10" guides="1" tooltips="1" connect="1" arrows="1" fold="1" page="1" pageScale="1" pageWidth="827" pageHeight="1169" math="0" shadow="0">
      <root>
        <mxCell id="0" />
        <mxCell id="1" parent="0" />
      </root>
    </mxGraphModel>
  </diagram>
</mxfile>
